# xmcd
#
# Track frame offsets: 
#        150
#        18235
#        40430
#        59879
#        93380
#        111476
#        123447
#        145429
#        161939
#        183837
#        203498
#        236381
#        323694
#
# Disc length: 4618 seconds
#
# Revision: 3
# Processed by: cddbd v1.5.2PL0 Copyright (c) Steve Scherf et al.
# Submitted via: ExactAudioCopyFreeDBPlugin 1.0
#
DISCID=ba12080d
DTITLE=Various Artist - Don't Fight The Feeling:  Aretha Franklin and K
DTITLE=ing Curtis Live at Fillmore West
DYEAR=2005
DGENRE=Soul
TTITLE0=Aretha Franklin - Respect
TTITLE1=Aretha Franklin - Call Me
TTITLE2=Aretha Franklin - Love the One You're With
TTITLE3=Aretha Franklin - Bridge Over Troubled Water
TTITLE4=Aretha Franklin - Share Your Love with Me
TTITLE5=Aretha Franklin - Eleanor Rigby
TTITLE6=Aretha Franklin - Make It with You
TTITLE7=Aretha Franklin - Don't Play That Song
TTITLE8=Aretha Franklin - You're All I Need to Get By
TTITLE9=Aretha Franklin - Dr. Feelgood
TTITLE10=Aretha Franklin - Spirit in the Dark
TTITLE11=Aretha Franklin - Spirit in the Dark (Reprise) (ft Ray Charle
TTITLE11=s)
TTITLE12=Aretha Franklin - Reach Out and Touch (Somebody's Hand)
EXTD=
EXTT0=
EXTT1=
EXTT2=
EXTT3=
EXTT4=
EXTT5=
EXTT6=
EXTT7=
EXTT8=
EXTT9=
EXTT10=
EXTT11=
EXTT12=
PLAYORDER=
